<svg width="32" height="32" viewBox="0 0 32 32" fill="none" xmlns="http://www.w3.org/2000/svg">
<g clip-path="url(#clip0_2_2)">
<rect width="32" height="32" rx="10" fill="black"/>
<path d="M18.0407 14.0854C17.9932 13.6295 17.793 13.2745 17.4402 13.0204C17.0908 12.7663 16.6361 12.6393 16.0763 12.6393C15.6828 12.6393 15.3452 12.7002 15.0636 12.822C14.782 12.9438 14.5666 13.1092 14.4173 13.318C14.268 13.5268 14.1917 13.7652 14.1883 14.0332C14.1883 14.256 14.2375 14.4491 14.3359 14.6127C14.4377 14.7763 14.5751 14.9155 14.7481 15.0304C14.9211 15.1417 15.1128 15.2357 15.3232 15.3123C15.5335 15.3889 15.7455 15.4533 15.9593 15.5055L16.9364 15.7561C17.3299 15.85 17.7082 15.9771 18.0712 16.1372C18.4377 16.2973 18.7651 16.4991 19.0534 16.7428C19.3452 16.9864 19.5759 17.2805 19.7455 17.6251C19.9152 17.9696 20 18.3734 20 18.8363C20 19.4627 19.8439 20.0144 19.5318 20.4912C19.2197 20.9646 18.7684 21.3352 18.1781 21.6032C17.5912 21.8677 16.8804 22 16.0458 22C15.2349 22 14.531 21.8712 13.9338 21.6137C13.3401 21.3561 12.8753 20.9802 12.5394 20.486C12.207 19.9918 12.0271 19.3897 12 18.6796H13.8575C13.8846 19.052 13.9966 19.3618 14.1934 19.6089C14.3902 19.856 14.6463 20.0405 14.9618 20.1623C15.2807 20.2841 15.637 20.345 16.0305 20.345C16.4411 20.345 16.8007 20.2824 17.1094 20.1571C17.4215 20.0283 17.6658 19.8508 17.8422 19.6246C18.0187 19.3949 18.1086 19.1269 18.112 18.8206C18.1086 18.5422 18.0288 18.3125 17.8728 18.1315C17.7167 17.947 17.4979 17.7939 17.2163 17.672C16.9381 17.5467 16.6124 17.4354 16.2392 17.3379L15.0534 17.0247C14.1951 16.7984 13.5165 16.4556 13.0178 15.9962C12.5225 15.5333 12.2748 14.919 12.2748 14.1533C12.2748 13.5233 12.4411 12.9717 12.7735 12.4983C13.1094 12.025 13.5657 11.6578 14.1425 11.3968C14.7193 11.1323 15.3723 11 16.1018 11C16.8414 11 17.4894 11.1323 18.0458 11.3968C18.6056 11.6578 19.045 12.0215 19.3639 12.4879C19.6828 12.9508 19.8473 13.4833 19.8575 14.0854H18.0407Z" fill="white"/>
</g>
<defs>
<clipPath id="clip0_2_2">
<rect width="32" height="32" fill="white"/>
</clipPath>
</defs>
</svg>
